<svg width="58" height="46" viewBox="0 0 58 46" fill="none" xmlns="http://www.w3.org/2000/svg">
<path d="M14.5715 18.5715C14.5715 17.467 15.467 16.5715 16.5715 16.5715H19.7144C20.819 16.5715 21.7144 17.467 21.7144 18.5715V34.4287H16.5715C15.467 34.4287 14.5715 33.5332 14.5715 32.4287V18.5715Z" stroke="#336CFB" stroke-width="2"/>
<path d="M21.7144 13.5715C21.7144 12.467 22.6098 11.5715 23.7144 11.5715H26.8572C27.9618 11.5715 28.8572 12.467 28.8572 13.5715V34.4287H21.7144V13.5715Z" stroke="#336CFB" stroke-width="2"/>
<path d="M28.8572 24.2856C28.8572 23.1811 29.7526 22.2856 30.8572 22.2856H34C35.1046 22.2856 36 23.1811 36 24.2856V32.4285C36 33.5331 35.1046 34.4285 34 34.4285H28.8572V24.2856Z" stroke="#336CFB" stroke-width="2"/>
</svg>
